<svg width="205" height="168" viewBox="0 0 205 168" fill="none" xmlns="http://www.w3.org/2000/svg">
<g filter="url(#filter0_ddddd_1156_756)">
<rect x="32" y="6" width="141" height="49" rx="24.5" fill="#5D50C6"/>
<path d="M74.122 36V30.834H69.166V32.514H72.302C72.19 33.214 71.476 34.446 69.642 34.446C67.976 34.446 66.506 33.284 66.506 31.044C66.506 28.692 68.13 27.67 69.628 27.67C71.238 27.67 72.064 28.692 72.316 29.574L74.164 28.916C73.674 27.39 72.232 25.864 69.628 25.864C66.94 25.864 64.546 27.838 64.546 31.044C64.546 34.25 66.828 36.21 69.502 36.21C71 36.21 71.98 35.538 72.428 34.866L72.554 36H74.122ZM77.2895 31.772C77.3315 31.142 77.8635 30.414 78.8295 30.414C79.8935 30.414 80.3415 31.086 80.3695 31.772H77.2895ZM80.5515 33.564C80.3275 34.18 79.8515 34.614 78.9835 34.614C78.0595 34.614 77.2895 33.956 77.2475 33.046H82.1755C82.1755 33.018 82.2035 32.738 82.2035 32.472C82.2035 30.26 80.9295 28.902 78.8015 28.902C77.0375 28.902 75.4135 30.33 75.4135 32.528C75.4135 34.852 77.0795 36.21 78.9695 36.21C80.6635 36.21 81.7555 35.216 82.1055 34.026L80.5515 33.564ZM85.9658 27.054H84.2858V28.02C84.2858 28.636 83.9498 29.112 83.2218 29.112H82.8718V30.764H84.1178V33.97C84.1178 35.3 84.9578 36.098 86.3018 36.098C86.8478 36.098 87.1838 36 87.3518 35.93V34.39C87.2538 34.418 87.0018 34.446 86.7778 34.446C86.2458 34.446 85.9658 34.25 85.9658 33.648V30.764H87.3518V29.112H85.9658V27.054ZM99.1694 28.44C98.9454 27.32 98.0214 25.864 95.6134 25.864C93.7374 25.864 92.1554 27.208 92.1554 28.972C92.1554 30.47 93.1774 31.492 94.7594 31.814L96.1454 32.094C96.9154 32.248 97.3494 32.696 97.3494 33.27C97.3494 33.97 96.7754 34.488 95.7394 34.488C94.3394 34.488 93.6534 33.606 93.5694 32.626L91.7774 33.102C91.9314 34.516 93.0934 36.21 95.7254 36.21C98.0354 36.21 99.3094 34.67 99.3094 33.144C99.3094 31.744 98.3434 30.568 96.5374 30.218L95.1514 29.952C94.4234 29.812 94.0734 29.378 94.0734 28.832C94.0734 28.174 94.6894 27.572 95.6274 27.572C96.8874 27.572 97.3354 28.426 97.4334 28.972L99.1694 28.44ZM103.165 27.054H101.485V28.02C101.485 28.636 101.149 29.112 100.421 29.112H100.071V30.764H101.317V33.97C101.317 35.3 102.157 36.098 103.501 36.098C104.047 36.098 104.383 36 104.551 35.93V34.39C104.453 34.418 104.201 34.446 103.977 34.446C103.445 34.446 103.165 34.25 103.165 33.648V30.764H104.551V29.112H103.165V27.054ZM105.754 34.124C105.754 35.202 106.65 36.196 108.12 36.196C109.142 36.196 109.8 35.72 110.15 35.174C110.15 35.44 110.178 35.818 110.22 36H111.928C111.886 35.762 111.844 35.272 111.844 34.908V31.52C111.844 30.134 111.032 28.902 108.848 28.902C107 28.902 106.006 30.092 105.894 31.17L107.546 31.52C107.602 30.918 108.05 30.4 108.862 30.4C109.646 30.4 110.024 30.806 110.024 31.296C110.024 31.534 109.898 31.73 109.506 31.786L107.812 32.038C106.664 32.206 105.754 32.892 105.754 34.124ZM108.512 34.81C107.91 34.81 107.616 34.418 107.616 34.012C107.616 33.48 107.994 33.214 108.47 33.144L110.024 32.906V33.214C110.024 34.432 109.296 34.81 108.512 34.81ZM117.921 29.084C117.781 29.07 117.641 29.056 117.487 29.056C116.899 29.056 115.947 29.224 115.527 30.134V29.112H113.721V36H115.583V32.85C115.583 31.366 116.409 30.904 117.361 30.904C117.529 30.904 117.711 30.918 117.921 30.96V29.084ZM121.8 27.054H120.12V28.02C120.12 28.636 119.784 29.112 119.056 29.112H118.706V30.764H119.952V33.97C119.952 35.3 120.792 36.098 122.136 36.098C122.682 36.098 123.018 36 123.186 35.93V34.39C123.088 34.418 122.836 34.446 122.612 34.446C122.08 34.446 121.8 34.25 121.8 33.648V30.764H123.186V29.112H121.8V27.054ZM126.057 31.772C126.099 31.142 126.631 30.414 127.597 30.414C128.661 30.414 129.109 31.086 129.137 31.772H126.057ZM129.319 33.564C129.095 34.18 128.619 34.614 127.751 34.614C126.827 34.614 126.057 33.956 126.015 33.046H130.943C130.943 33.018 130.971 32.738 130.971 32.472C130.971 30.26 129.697 28.902 127.569 28.902C125.805 28.902 124.181 30.33 124.181 32.528C124.181 34.852 125.847 36.21 127.737 36.21C129.431 36.21 130.523 35.216 130.873 34.026L129.319 33.564ZM139.003 25.864H137.169V29.798C136.973 29.434 136.413 28.944 135.223 28.944C133.277 28.944 131.919 30.526 131.919 32.542C131.919 34.628 133.319 36.168 135.279 36.168C136.203 36.168 136.903 35.748 137.211 35.202C137.211 35.524 137.253 35.86 137.281 36H139.059C139.031 35.72 139.003 35.216 139.003 34.754V25.864ZM133.795 32.542C133.795 31.31 134.551 30.61 135.503 30.61C136.455 30.61 137.197 31.296 137.197 32.528C137.197 33.774 136.455 34.502 135.503 34.502C134.523 34.502 133.795 33.774 133.795 32.542Z" fill="#EEEEEE"/>
</g>
<defs>
<filter id="filter0_ddddd_1156_756" x="0" y="0" width="205" height="168" filterUnits="userSpaceOnUse" color-interpolation-filters="sRGB">
<feFlood flood-opacity="0" result="BackgroundImageFix"/>
<feColorMatrix in="SourceAlpha" type="matrix" values="0 0 0 0 0 0 0 0 0 0 0 0 0 0 0 0 0 0 127 0" result="hardAlpha"/>
<feOffset/>
<feColorMatrix type="matrix" values="0 0 0 0 0 0 0 0 0 0 0 0 0 0 0 0 0 0 0.1 0"/>
<feBlend mode="normal" in2="BackgroundImageFix" result="effect1_dropShadow_1156_756"/>
<feColorMatrix in="SourceAlpha" type="matrix" values="0 0 0 0 0 0 0 0 0 0 0 0 0 0 0 0 0 0 127 0" result="hardAlpha"/>
<feOffset dy="5"/>
<feGaussianBlur stdDeviation="5.5"/>
<feColorMatrix type="matrix" values="0 0 0 0 0 0 0 0 0 0 0 0 0 0 0 0 0 0 0.1 0"/>
<feBlend mode="normal" in2="effect1_dropShadow_1156_756" result="effect2_dropShadow_1156_756"/>
<feColorMatrix in="SourceAlpha" type="matrix" values="0 0 0 0 0 0 0 0 0 0 0 0 0 0 0 0 0 0 127 0" result="hardAlpha"/>
<feOffset dy="20"/>
<feGaussianBlur stdDeviation="10"/>
<feColorMatrix type="matrix" values="0 0 0 0 0 0 0 0 0 0 0 0 0 0 0 0 0 0 0.09 0"/>
<feBlend mode="normal" in2="effect2_dropShadow_1156_756" result="effect3_dropShadow_1156_756"/>
<feColorMatrix in="SourceAlpha" type="matrix" values="0 0 0 0 0 0 0 0 0 0 0 0 0 0 0 0 0 0 127 0" result="hardAlpha"/>
<feOffset dy="45"/>
<feGaussianBlur stdDeviation="13.5"/>
<feColorMatrix type="matrix" values="0 0 0 0 0 0 0 0 0 0 0 0 0 0 0 0 0 0 0.05 0"/>
<feBlend mode="normal" in2="effect3_dropShadow_1156_756" result="effect4_dropShadow_1156_756"/>
<feColorMatrix in="SourceAlpha" type="matrix" values="0 0 0 0 0 0 0 0 0 0 0 0 0 0 0 0 0 0 127 0" result="hardAlpha"/>
<feOffset dy="81"/>
<feGaussianBlur stdDeviation="16"/>
<feColorMatrix type="matrix" values="0 0 0 0 0 0 0 0 0 0 0 0 0 0 0 0 0 0 0.01 0"/>
<feBlend mode="normal" in2="effect4_dropShadow_1156_756" result="effect5_dropShadow_1156_756"/>
<feBlend mode="normal" in="SourceGraphic" in2="effect5_dropShadow_1156_756" result="shape"/>
</filter>
</defs>
</svg>
